<svg xmlns="http://www.w3.org/2000/svg" fill="none" viewBox="0 0 246 48">
	<path fill="#131517" d="M65.3 19.5v-5.7h18.1v5.7H65.2Zm11.6 25.2a8 8 0 0 1-5.6-1.9 7 7 0 0 1-2-5.3V22.1c0-.6 0-1.2.4-1.6a2 2 0 0 1 1-1L69.3 15v-.8l1.6-9.1h5v30.8c0 1 .2 1.8.7 2.3.5.4 1.3.6 2.6.6h4.3v5.6l-3.2.3H77Zm9.1-.4V13.8h5.6l.8 11.7-.6-1.6a16.1 16.1 0 0 1 2.3-7.2 8 8 0 0 1 2.6-2.6c1-.6 2.4-1 4-1a10.3 10.3 0 0 1 2 .3v7l-2-.4h-2c-.7 0-1.4 0-2.3.4-.8.3-1.6.7-2.3 1.3a5 5 0 0 0-1.5 2.1v20.5H86Zm26.7.3a11 11 0 0 1-4.9-1 7.8 7.8 0 0 1-4.6-7.3 9 9 0 0 1 1-4.5A7.5 7.5 0 0 1 107 29c1.2-.7 2.7-1.2 4.4-1.6a38.8 38.8 0 0 1 7.5-1l2.6-.2v-1.3c0-2-.4-3.6-1.2-4.6-.9-1-2.3-1.6-4.2-1.6-1.3 0-2.4.2-3.2.5-.9.3-1.5.9-2 1.7-.4.9-.6 2-.7 3.7h-6a11 11 0 0 1 1.2-6.5c1-1.7 2.3-2.9 4.3-3.7a20.4 20.4 0 0 1 11.1-.7c1.4.4 2.6 1 3.7 1.8 1 .8 1.8 2 2.5 3.4a14 14 0 0 1 .9 5.4v20h-6.5l.1-6.9a8.5 8.5 0 0 1-2.7 5.2 8.5 8.5 0 0 1-6 2h-.1Zm1.8-5a9.4 9.4 0 0 0 5.6-2 4 4 0 0 0 1.4-2.2V30a39.9 39.9 0 0 0-9.8 2.5c-.9.7-1.4 1.8-1.4 3.2a3.8 3.8 0 0 0 2.2 3.5 4 4 0 0 0 2 .5Zm14.9 4.7V13.8h6.7v30.5h-6.7Zm6-7.6-.7-5.9 3.7-6.4 7.6-10.6h7.8L143.3 28l-2.6 2-5.3 6.6Zm11.4 7.6L138 28.8l5-3.8 11.9 19.3h-8Z" />
	<path fill="#131517" d="M151.6 19.5v-5.7h18.2v5.7h-18.2Zm11.7 25.2a8 8 0 0 1-5.7-1.9 7 7 0 0 1-2-5.3V22.1c0-.6.1-1.2.4-1.6.3-.5.7-.8 1.2-1l-1.6-4.5v-.8l1.5-9.1h5v30.8c0 1 .3 1.8.7 2.3.5.4 1.4.6 2.7.6h4.3v5.6l-3.3.3h-3.2Z" />
	<mask id="a" width="48" height="48" x="0" y="0" maskUnits="userSpaceOnUse" style="mask-type:luminance">
		<path fill="#fff" d="M36.6 0H11.2C5 0 0 5 0 11.2v25.4c0 6.2 5 11.2 11.2 11.2h25.4c6.2 0 11.2-5 11.2-11.2V11.2C47.8 5 42.8 0 36.6 0Z" />
	</mask>
	<g mask="url(#a)">
		<path fill="url(#b)" d="M36.6 0H11.2C5 0 0 5 0 11.2v25.4c0 6.2 5 11.2 11.2 11.2h25.4c6.2 0 11.2-5 11.2-11.2V11.2C47.8 5 42.8 0 36.6 0Z" />
		<path fill="#FEFEFE" d="m17.2 14.3-1.5 1.5 8 7.9 1.4-1.5-8-7.9ZM15 16.5l-1.4 1.4 7.9 8 1.4-1.5-7.9-8Zm-2.1 2.1-1.5 1.5 14.4 14.3 1.4-1.4L13 18.6Z" />
		<path fill="#FEFEFE" d="M48.3.3 20.7 28l1.5 1.5L49.8 1.8 48.3.3ZM28 32.3l-3.7-3.7 24-24 1.5 1.5-22.6 22.5 2.2 2.2-1.5 1.5Z" />
		<path fill="#FEFEFE" d="M48.3 9 28.6 28.5l1.5 1.5 19.7-19.7-1.5-1.5Z" />
		<path fill="#FEFEFE" d="M35 43.3H12.8A8.3 8.3 0 0 1 4.6 35V12.8c0-4.5 3.7-8.2 8.2-8.2h20.7v2H12.8a6.2 6.2 0 0 0-6.1 6.2V35c0 3.4 2.7 6.2 6.1 6.2H35c3.4 0 6.2-2.8 6.2-6.2v-3.5h2V35c0 4.5-3.7 8.3-8.2 8.3Z" />
	</g>
	<path fill="#B268D1" d="M183.1 19a8 8 0 0 1 8-8H238a8 8 0 0 1 8 8v20a8 8 0 0 1-8 8h-47a8 8 0 0 1-8-8V19Z" />
	<path fill="#131517" d="M225.6 38.8v-3.3h4.2V24c0-.4.1-.8.3-1 .2-.2.4-.4.7-.4h-5.2v-3.3h12.3v3.3h-4.3V34c0 .4 0 .8-.3 1-.1.2-.4.4-.7.4h5.3v3.3h-12.3ZM214 32.2a1 1 0 0 1-.7-.3c-.2-.2-.3-.5-.3-.8l-1-1.3 1-.8h3c.7 0 1.3-.1 1.8-.3.5-.3.9-.7 1-1.2.3-.5.5-1.1.5-1.9 0-.8-.2-1.4-.4-1.9a3 3 0 0 0-1.2-1 5 5 0 0 0-1.9-.3H213l-1.2-3.2h4.5c2.2 0 4 .5 5.1 1.5 1.2 1 1.8 2.6 1.8 4.7 0 1-.1 1.8-.3 2.6a5.7 5.7 0 0 1-3.3 3.7c-1 .3-2 .5-3.3.5H214Zm-4.8 6.6V19.2h3.8v19.6h-3.8Zm-18.1 0 5.5-19.6h5.5l5.5 19.6h-4l-1.5-6.1 2 1.5h-9l.6-3h7.6l-1.3 1.4-1.6-6.6-1-4.2h-.2l-1 4.2-3.1 12.8h-4Z" />
	<defs>
		<radialGradient id="b" cx="0" cy="0" r="1" gradientTransform="translate(48 -1) scale(64.472)" gradientUnits="userSpaceOnUse">
			<stop stop-color="#9F42C6" />
			<stop offset=".3" stop-color="#A041C3" />
			<stop offset=".4" stop-color="#A43EBB" />
			<stop offset=".5" stop-color="#AA39AD" />
			<stop offset=".6" stop-color="#B4339A" />
			<stop offset=".7" stop-color="#C02B81" />
			<stop offset=".8" stop-color="#CF2061" />
			<stop offset=".9" stop-color="#E1143C" />
			<stop offset="1" stop-color="#F50613" />
			<stop offset="1" stop-color="red" />
		</radialGradient>
	</defs>
</svg>
